<svg width="162" height="25" viewBox="0 0 162 25" fill="none" xmlns="http://www.w3.org/2000/svg">
<path d="M4.14 25H0.78V4.42H4.14V25ZM25.5502 25H22.6102V12.82H13.7902V25H10.8502V10.3H13.7902V12.4L15.8902 10.3H22.6102C23.4222 10.3 24.1082 10.594 24.6682 11.182C25.2562 11.742 25.5502 12.428 25.5502 13.24V25ZM44.46 1.48L41.898 4H34.8V11.98L36.522 10.3H44.04L41.478 12.82H34.8V25H31.86V4.42C31.86 3.608 32.14 2.922 32.7 2.362C33.288 1.774 33.988 1.48 34.8 1.48H44.46ZM61.4798 22.06C61.4798 22.872 61.1858 23.572 60.5978 24.16C60.0378 24.72 59.3518 25 58.5398 25H49.7198C48.9078 25 48.2078 24.72 47.6198 24.16C47.0598 23.572 46.7798 22.872 46.7798 22.06V13.24C46.7798 12.428 47.0598 11.742 47.6198 11.182C48.2078 10.594 48.9078 10.3 49.7198 10.3H58.5398C59.3518 10.3 60.0378 10.594 60.5978 11.182C61.1858 11.742 61.4798 12.428 61.4798 13.24V22.06ZM58.5398 22.48V12.82H49.7198V22.48H58.5398ZM82.0697 25H79.1297V22.9L77.0297 25H70.3097C69.4977 25 68.7977 24.72 68.2097 24.16C67.6497 23.572 67.3697 22.872 67.3697 22.06V13.24C67.3697 12.428 67.6497 11.742 68.2097 11.182C68.7977 10.594 69.4977 10.3 70.3097 10.3H79.1297V3.58L82.0697 0.639998V25ZM79.1297 22.48V10.72L77.0297 12.82H70.3097V22.48H79.1297ZM103.07 25H91.3097C90.4977 25 89.7977 24.72 89.2097 24.16C88.6497 23.572 88.3697 22.872 88.3697 22.06V13.24C88.3697 12.428 88.6497 11.742 89.2097 11.182C89.7977 10.594 90.4977 10.3 91.3097 10.3H100.13C100.942 10.3 101.628 10.594 102.188 11.182C102.776 11.742 103.07 12.428 103.07 13.24V16.18L100.13 19.12H91.7297L94.2497 16.6H100.13V12.82H91.3097V22.48H103.07V25ZM132.468 25H129.528V12.82H121.548V25H118.608V12.82H110.628V25H107.688V10.3H110.628V12.4L112.728 10.3H118.608C120.316 10.3 121.282 11.014 121.506 12.442L123.648 10.3H129.528C130.34 10.3 131.026 10.594 131.586 11.182C132.174 11.742 132.468 12.428 132.468 13.24V25ZM141.308 7.78H138.368V4.42H141.308V7.78ZM141.308 25H138.368V12.4L141.308 9.46V25ZM161.256 25H158.316V22.858L155.796 25H149.496C148.684 25 147.984 24.72 147.396 24.16C146.836 23.572 146.556 22.872 146.556 22.06V19.12C146.556 18.308 146.836 17.622 147.396 17.062C147.984 16.474 148.684 16.18 149.496 16.18H157.896L155.376 18.658H149.496V22.48H158.316V12.82H146.556L149.076 10.3H158.316C159.128 10.3 159.814 10.594 160.374 11.182C160.962 11.742 161.256 12.428 161.256 13.24V25Z" fill="black"/>
<path d="M4.14 25V25.75H4.89V25H4.14ZM0.78 25H0.0300002V25.75H0.78V25ZM0.78 4.42V3.67H0.0300002V4.42H0.78ZM4.14 4.42H4.89V3.67H4.14V4.42ZM4.14 24.25H0.78V25.75H4.14V24.25ZM1.53 25V4.42H0.0300002V25H1.53ZM0.78 5.17H4.14V3.67H0.78V5.17ZM3.39 4.42V25H4.89V4.42H3.39ZM25.5502 25V25.75H26.3002V25H25.5502ZM22.6102 25H21.8602V25.75H22.6102V25ZM22.6102 12.82H23.3602V12.07H22.6102V12.82ZM13.7902 12.82V12.07H13.0402V12.82H13.7902ZM13.7902 25V25.75H14.5402V25H13.7902ZM10.8502 25H10.1002V25.75H10.8502V25ZM10.8502 10.3V9.55H10.1002V10.3H10.8502ZM13.7902 10.3H14.5402V9.55H13.7902V10.3ZM13.7902 12.4H13.0402V14.2107L14.3205 12.9303L13.7902 12.4ZM15.8902 10.3V9.55H15.5795L15.3598 9.76967L15.8902 10.3ZM24.6682 11.182L24.1251 11.6992L24.1377 11.7125L24.1509 11.7251L24.6682 11.182ZM25.5502 24.25H22.6102V25.75H25.5502V24.25ZM23.3602 25V12.82H21.8602V25H23.3602ZM22.6102 12.07H13.7902V13.57H22.6102V12.07ZM13.0402 12.82V25H14.5402V12.82H13.0402ZM13.7902 24.25H10.8502V25.75H13.7902V24.25ZM11.6002 25V10.3H10.1002V25H11.6002ZM10.8502 11.05H13.7902V9.55H10.8502V11.05ZM13.0402 10.3V12.4H14.5402V10.3H13.0402ZM14.3205 12.9303L16.4205 10.8303L15.3598 9.76967L13.2598 11.8697L14.3205 12.9303ZM15.8902 11.05H22.6102V9.55H15.8902V11.05ZM22.6102 11.05C23.2169 11.05 23.7066 11.2599 24.1251 11.6992L25.2113 10.6648C24.5097 9.92812 23.6274 9.55 22.6102 9.55V11.05ZM24.1509 11.7251C24.5903 12.1435 24.8002 12.6333 24.8002 13.24H26.3002C26.3002 12.2227 25.922 11.3405 25.1854 10.6389L24.1509 11.7251ZM24.8002 13.24V25H26.3002V13.24H24.8002ZM44.46 1.48L44.9859 2.0147L46.292 0.73H44.46V1.48ZM41.898 4V4.75H42.205L42.4239 4.53469L41.898 4ZM34.8 4V3.25H34.05V4H34.8ZM34.8 11.98H34.05V13.7595L35.3237 12.5168L34.8 11.98ZM36.522 10.3V9.55H36.2168L35.9983 9.76316L36.522 10.3ZM44.04 10.3L44.5659 10.8347L45.872 9.55H44.04V10.3ZM41.478 12.82V13.57H41.785L42.0039 13.3547L41.478 12.82ZM34.8 12.82V12.07H34.05V12.82H34.8ZM34.8 25V25.75H35.55V25H34.8ZM31.86 25H31.11V25.75H31.86V25ZM32.7 2.362L32.1697 1.83167L32.7 2.362ZM43.9341 0.945305L41.3721 3.46531L42.4239 4.53469L44.9859 2.0147L43.9341 0.945305ZM41.898 3.25H34.8V4.75H41.898V3.25ZM34.05 4V11.98H35.55V4H34.05ZM35.3237 12.5168L37.0457 10.8368L35.9983 9.76316L34.2763 11.4432L35.3237 12.5168ZM36.522 11.05H44.04V9.55H36.522V11.05ZM43.5141 9.7653L40.9521 12.2853L42.0039 13.3547L44.5659 10.8347L43.5141 9.7653ZM41.478 12.07H34.8V13.57H41.478V12.07ZM34.05 12.82V25H35.55V12.82H34.05ZM34.8 24.25H31.86V25.75H34.8V24.25ZM32.61 25V4.42H31.11V25H32.61ZM32.61 4.42C32.61 3.80127 32.8149 3.30774 33.2303 2.89233L32.1697 1.83167C31.4651 2.53626 31.11 3.41472 31.11 4.42H32.61ZM33.2303 2.89233C33.6815 2.44119 34.1922 2.23 34.8 2.23V0.73C33.7838 0.73 32.8945 1.10681 32.1697 1.83167L33.2303 2.89233ZM34.8 2.23H44.46V0.73H34.8V2.23ZM60.5978 24.16L61.1282 24.6903L60.5978 24.16ZM47.6198 24.16L47.0767 24.6772L47.0894 24.6905L47.1026 24.7031L47.6198 24.16ZM47.6198 11.182L47.0895 10.6517H47.0895L47.6198 11.182ZM60.5978 11.182L60.0547 11.6992L60.0674 11.7125L60.0806 11.7251L60.5978 11.182ZM58.5398 22.48V23.23H59.2898V22.48H58.5398ZM58.5398 12.82H59.2898V12.07H58.5398V12.82ZM49.7198 12.82V12.07H48.9698V12.82H49.7198ZM49.7198 22.48H48.9698V23.23H49.7198V22.48ZM60.7298 22.06C60.7298 22.6678 60.5187 23.1785 60.0675 23.6297L61.1282 24.6903C61.853 23.9655 62.2298 23.0762 62.2298 22.06H60.7298ZM60.0675 23.6297C59.6521 24.0451 59.1586 24.25 58.5398 24.25V25.75C59.5451 25.75 60.4236 25.3949 61.1282 24.6903L60.0675 23.6297ZM58.5398 24.25H49.7198V25.75H58.5398V24.25ZM49.7198 24.25C49.1004 24.25 48.5856 24.0441 48.1371 23.6169L47.1026 24.7031C47.8301 25.3959 48.7153 25.75 49.7198 25.75V24.25ZM48.1629 23.6428C47.7358 23.1942 47.5298 22.6794 47.5298 22.06H46.0298C46.0298 23.0646 46.3839 23.9498 47.0767 24.6772L48.1629 23.6428ZM47.5298 22.06V13.24H46.0298V22.06H47.5298ZM47.5298 13.24C47.5298 12.6213 47.7348 12.1277 48.1502 11.7123L47.0895 10.6517C46.3849 11.3563 46.0298 12.2347 46.0298 13.24H47.5298ZM48.1502 11.7123C48.6013 11.2612 49.1121 11.05 49.7198 11.05V9.55C48.7036 9.55 47.8144 9.92681 47.0895 10.6517L48.1502 11.7123ZM49.7198 11.05H58.5398V9.55H49.7198V11.05ZM58.5398 11.05C59.1466 11.05 59.6363 11.2599 60.0547 11.6992L61.1409 10.6648C60.4394 9.92812 59.5571 9.55 58.5398 9.55V11.05ZM60.0806 11.7251C60.52 12.1435 60.7298 12.6333 60.7298 13.24H62.2298C62.2298 12.2227 61.8517 11.3405 61.1151 10.6389L60.0806 11.7251ZM60.7298 13.24V22.06H62.2298V13.24H60.7298ZM59.2898 22.48V12.82H57.7898V22.48H59.2898ZM58.5398 12.07H49.7198V13.57H58.5398V12.07ZM48.9698 12.82V22.48H50.4698V12.82H48.9698ZM49.7198 23.23H58.5398V21.73H49.7198V23.23ZM82.0697 25V25.75H82.8197V25H82.0697ZM79.1297 25H78.3797V25.75H79.1297V25ZM79.1297 22.9H79.8797V21.0893L78.5994 22.3697L79.1297 22.9ZM77.0297 25V25.75H77.3403L77.56 25.5303L77.0297 25ZM68.2097 24.16L67.6666 24.6772L67.6792 24.6905L67.6924 24.7031L68.2097 24.16ZM68.2097 11.182L67.6794 10.6517L68.2097 11.182ZM79.1297 10.3V11.05H79.8797V10.3H79.1297ZM79.1297 3.58L78.5994 3.04967L78.3797 3.26934V3.58H79.1297ZM82.0697 0.639998H82.8197V-1.17066L81.5394 0.109668L82.0697 0.639998ZM79.1297 22.48V23.23H79.8797V22.48H79.1297ZM79.1297 10.72H79.8797V8.90934L78.5994 10.1897L79.1297 10.72ZM77.0297 12.82V13.57H77.3403L77.56 13.3503L77.0297 12.82ZM70.3097 12.82V12.07H69.5597V12.82H70.3097ZM70.3097 22.48H69.5597V23.23H70.3097V22.48ZM82.0697 24.25H79.1297V25.75H82.0697V24.25ZM79.8797 25V22.9H78.3797V25H79.8797ZM78.5994 22.3697L76.4994 24.4697L77.56 25.5303L79.66 23.4303L78.5994 22.3697ZM77.0297 24.25H70.3097V25.75H77.0297V24.25ZM70.3097 24.25C69.6903 24.25 69.1755 24.0441 68.7269 23.6169L67.6924 24.7031C68.4199 25.3959 69.3051 25.75 70.3097 25.75V24.25ZM68.7528 23.6428C68.3256 23.1942 68.1197 22.6794 68.1197 22.06H66.6197C66.6197 23.0646 66.9738 23.9498 67.6666 24.6772L68.7528 23.6428ZM68.1197 22.06V13.24H66.6197V22.06H68.1197ZM68.1197 13.24C68.1197 12.6213 68.3246 12.1277 68.74 11.7123L67.6794 10.6517C66.9748 11.3563 66.6197 12.2347 66.6197 13.24H68.1197ZM68.74 11.7123C69.1912 11.2612 69.7019 11.05 70.3097 11.05V9.55C69.2935 9.55 68.4042 9.92681 67.6794 10.6517L68.74 11.7123ZM70.3097 11.05H79.1297V9.55H70.3097V11.05ZM79.8797 10.3V3.58H78.3797V10.3H79.8797ZM79.66 4.11033L82.6 1.17033L81.5394 0.109668L78.5994 3.04967L79.66 4.11033ZM81.3197 0.639998V25H82.8197V0.639998H81.3197ZM79.8797 22.48V10.72H78.3797V22.48H79.8797ZM78.5994 10.1897L76.4994 12.2897L77.56 13.3503L79.66 11.2503L78.5994 10.1897ZM77.0297 12.07H70.3097V13.57H77.0297V12.07ZM69.5597 12.82V22.48H71.0597V12.82H69.5597ZM70.3097 23.23H79.1297V21.73H70.3097V23.23ZM103.07 25V25.75H103.82V25H103.07ZM89.2097 24.16L88.6666 24.6772L88.6792 24.6905L88.6924 24.7031L89.2097 24.16ZM89.2097 11.182L88.6794 10.6517L89.2097 11.182ZM102.188 11.182L101.645 11.6992L101.657 11.7125L101.67 11.7251L102.188 11.182ZM103.07 16.18L103.6 16.7103L103.82 16.4907V16.18H103.07ZM100.13 19.12V19.87H100.44L100.66 19.6503L100.13 19.12ZM91.7297 19.12L91.1994 18.5897L89.919 19.87H91.7297V19.12ZM94.2497 16.6V15.85H93.939L93.7194 16.0697L94.2497 16.6ZM100.13 16.6V17.35H100.88V16.6H100.13ZM100.13 12.82H100.88V12.07H100.13V12.82ZM91.3097 12.82V12.07H90.5597V12.82H91.3097ZM91.3097 22.48H90.5597V23.23H91.3097V22.48ZM103.07 22.48H103.82V21.73H103.07V22.48ZM103.07 24.25H91.3097V25.75H103.07V24.25ZM91.3097 24.25C90.6903 24.25 90.1755 24.0441 89.7269 23.6169L88.6924 24.7031C89.4199 25.3959 90.3051 25.75 91.3097 25.75V24.25ZM89.7528 23.6428C89.3256 23.1942 89.1197 22.6794 89.1197 22.06H87.6197C87.6197 23.0646 87.9738 23.9498 88.6666 24.6772L89.7528 23.6428ZM89.1197 22.06V13.24H87.6197V22.06H89.1197ZM89.1197 13.24C89.1197 12.6213 89.3246 12.1277 89.74 11.7123L88.6794 10.6517C87.9748 11.3563 87.6197 12.2347 87.6197 13.24H89.1197ZM89.74 11.7123C90.1912 11.2612 90.7019 11.05 91.3097 11.05V9.55C90.2935 9.55 89.4042 9.92681 88.6794 10.6517L89.74 11.7123ZM91.3097 11.05H100.13V9.55H91.3097V11.05ZM100.13 11.05C100.736 11.05 101.226 11.2599 101.645 11.6992L102.731 10.6648C102.029 9.92812 101.147 9.55 100.13 9.55V11.05ZM101.67 11.7251C102.11 12.1435 102.32 12.6333 102.32 13.24H103.82C103.82 12.2227 103.442 11.3405 102.705 10.6389L101.67 11.7251ZM102.32 13.24V16.18H103.82V13.24H102.32ZM102.539 15.6497L99.5994 18.5897L100.66 19.6503L103.6 16.7103L102.539 15.6497ZM100.13 18.37H91.7297V19.87H100.13V18.37ZM92.26 19.6503L94.78 17.1303L93.7194 16.0697L91.1994 18.5897L92.26 19.6503ZM94.2497 17.35H100.13V15.85H94.2497V17.35ZM100.88 16.6V12.82H99.3797V16.6H100.88ZM100.13 12.07H91.3097V13.57H100.13V12.07ZM90.5597 12.82V22.48H92.0597V12.82H90.5597ZM91.3097 23.23H103.07V21.73H91.3097V23.23ZM102.32 22.48V25H103.82V22.48H102.32ZM132.468 25V25.75H133.218V25H132.468ZM129.528 25H128.778V25.75H129.528V25ZM129.528 12.82H130.278V12.07H129.528V12.82ZM121.548 12.82V12.07H120.798V12.82H121.548ZM121.548 25V25.75H122.298V25H121.548ZM118.608 25H117.858V25.75H118.608V25ZM118.608 12.82H119.358V12.07H118.608V12.82ZM110.628 12.82V12.07H109.878V12.82H110.628ZM110.628 25V25.75H111.378V25H110.628ZM107.688 25H106.938V25.75H107.688V25ZM107.688 10.3V9.55H106.938V10.3H107.688ZM110.628 10.3H111.378V9.55H110.628V10.3ZM110.628 12.4H109.878V14.2107L111.158 12.9303L110.628 12.4ZM112.728 10.3V9.55H112.417L112.198 9.76967L112.728 10.3ZM121.506 12.442L120.765 12.5582L120.994 14.0151L122.036 12.9723L121.506 12.442ZM123.648 10.3V9.55H123.337L123.118 9.76967L123.648 10.3ZM131.586 11.182L131.043 11.6992L131.056 11.7125L131.069 11.7251L131.586 11.182ZM132.468 24.25H129.528V25.75H132.468V24.25ZM130.278 25V12.82H128.778V25H130.278ZM129.528 12.07H121.548V13.57H129.528V12.07ZM120.798 12.82V25H122.298V12.82H120.798ZM121.548 24.25H118.608V25.75H121.548V24.25ZM119.358 25V12.82H117.858V25H119.358ZM118.608 12.07H110.628V13.57H118.608V12.07ZM109.878 12.82V25H111.378V12.82H109.878ZM110.628 24.25H107.688V25.75H110.628V24.25ZM108.438 25V10.3H106.938V25H108.438ZM107.688 11.05H110.628V9.55H107.688V11.05ZM109.878 10.3V12.4H111.378V10.3H109.878ZM111.158 12.9303L113.258 10.8303L112.198 9.76967L110.098 11.8697L111.158 12.9303ZM112.728 11.05H118.608V9.55H112.728V11.05ZM118.608 11.05C119.367 11.05 119.858 11.2098 120.168 11.4386C120.461 11.6552 120.677 11.9967 120.765 12.5582L122.247 12.3258C122.111 11.4592 121.732 10.7297 121.059 10.2324C120.403 9.74724 119.557 9.55 118.608 9.55V11.05ZM122.036 12.9723L124.178 10.8303L123.118 9.76967L120.976 11.9117L122.036 12.9723ZM123.648 11.05H129.528V9.55H123.648V11.05ZM129.528 11.05C130.135 11.05 130.624 11.2599 131.043 11.6992L132.129 10.6648C131.428 9.92812 130.545 9.55 129.528 9.55V11.05ZM131.069 11.7251C131.508 12.1435 131.718 12.6333 131.718 13.24H133.218C133.218 12.2227 132.84 11.3405 132.103 10.6389L131.069 11.7251ZM131.718 13.24V25H133.218V13.24H131.718ZM141.308 7.78V8.53H142.058V7.78H141.308ZM138.368 7.78H137.618V8.53H138.368V7.78ZM138.368 4.42V3.67H137.618V4.42H138.368ZM141.308 4.42H142.058V3.67H141.308V4.42ZM141.308 25V25.75H142.058V25H141.308ZM138.368 25H137.618V25.75H138.368V25ZM138.368 12.4L137.837 11.8697L137.618 12.0893V12.4H138.368ZM141.308 9.46H142.058V7.64934L140.777 8.92967L141.308 9.46ZM141.308 7.03H138.368V8.53H141.308V7.03ZM139.118 7.78V4.42H137.618V7.78H139.118ZM138.368 5.17H141.308V3.67H138.368V5.17ZM140.558 4.42V7.78H142.058V4.42H140.558ZM141.308 24.25H138.368V25.75H141.308V24.25ZM139.118 25V12.4H137.618V25H139.118ZM138.898 12.9303L141.838 9.99033L140.777 8.92967L137.837 11.8697L138.898 12.9303ZM140.558 9.46V25H142.058V9.46H140.558ZM161.256 25V25.75H162.006V25H161.256ZM158.316 25H157.566V25.75H158.316V25ZM158.316 22.858H159.066V21.2362L157.83 22.2865L158.316 22.858ZM155.796 25V25.75H156.072L156.282 25.5715L155.796 25ZM147.396 24.16L146.853 24.6772L146.866 24.6905L146.879 24.7031L147.396 24.16ZM147.396 17.062L147.926 17.5923L147.396 17.062ZM157.896 16.18L158.422 16.7148L159.729 15.43H157.896V16.18ZM155.376 18.658V19.408H155.683L155.902 19.1928L155.376 18.658ZM149.496 18.658V17.908H148.746V18.658H149.496ZM149.496 22.48H148.746V23.23H149.496V22.48ZM158.316 22.48V23.23H159.066V22.48H158.316ZM158.316 12.82H159.066V12.07H158.316V12.82ZM146.556 12.82L146.026 12.2897L144.745 13.57H146.556V12.82ZM149.076 10.3V9.55H148.765L148.546 9.76967L149.076 10.3ZM160.374 11.182L159.831 11.6992L159.844 11.7125L159.857 11.7251L160.374 11.182ZM161.256 24.25H158.316V25.75H161.256V24.25ZM159.066 25V22.858H157.566V25H159.066ZM157.83 22.2865L155.31 24.4285L156.282 25.5715L158.802 23.4295L157.83 22.2865ZM155.796 24.25H149.496V25.75H155.796V24.25ZM149.496 24.25C148.877 24.25 148.362 24.0441 147.913 23.6169L146.879 24.7031C147.606 25.3959 148.492 25.75 149.496 25.75V24.25ZM147.939 23.6428C147.512 23.1942 147.306 22.6794 147.306 22.06H145.806C145.806 23.0646 146.16 23.9498 146.853 24.6772L147.939 23.6428ZM147.306 22.06V19.12H145.806V22.06H147.306ZM147.306 19.12C147.306 18.5013 147.511 18.0077 147.926 17.5923L146.866 16.5317C146.161 17.2363 145.806 18.1147 145.806 19.12H147.306ZM147.926 17.5923C148.378 17.1412 148.888 16.93 149.496 16.93V15.43C148.48 15.43 147.591 15.8068 146.866 16.5317L147.926 17.5923ZM149.496 16.93H157.896V15.43H149.496V16.93ZM157.37 15.6452L154.85 18.1232L155.902 19.1928L158.422 16.7148L157.37 15.6452ZM155.376 17.908H149.496V19.408H155.376V17.908ZM148.746 18.658V22.48H150.246V18.658H148.746ZM149.496 23.23H158.316V21.73H149.496V23.23ZM159.066 22.48V12.82H157.566V22.48H159.066ZM158.316 12.07H146.556V13.57H158.316V12.07ZM147.086 13.3503L149.606 10.8303L148.546 9.76967L146.026 12.2897L147.086 13.3503ZM149.076 11.05H158.316V9.55H149.076V11.05ZM158.316 11.05C158.923 11.05 159.413 11.2599 159.831 11.6992L160.917 10.6648C160.216 9.92812 159.333 9.55 158.316 9.55V11.05ZM159.857 11.7251C160.296 12.1435 160.506 12.6333 160.506 13.24H162.006C162.006 12.2227 161.628 11.3405 160.891 10.6389L159.857 11.7251ZM160.506 13.24V25H162.006V13.24H160.506Z" fill="black"/>
</svg>
